<mxfile host="app.diagrams.net" modified="2023-10-13T14:02:42.261Z" agent="Mozilla/5.0 (Windows NT 10.0; Win64; x64) AppleWebKit/537.36 (KHTML, like Gecko) Chrome/116.0.0.0 Safari/537.36 OPR/102.0.0.0" etag="skHGUnm28KjeoSu2qNGv" version="22.0.4" type="github">
  <diagram id="R2lEEEUBdFMjLlhIrx00" name="Page-1">
    <mxGraphModel dx="2870" dy="783" grid="1" gridSize="10" guides="1" tooltips="1" connect="1" arrows="1" fold="1" page="1" pageScale="1" pageWidth="850" pageHeight="1100" math="0" shadow="0" extFonts="Permanent Marker^https://fonts.googleapis.com/css?family=Permanent+Marker">
      <root>
        <mxCell id="0" />
        <mxCell id="1" parent="0" />
        <mxCell id="CkNiLpnLs1v-qGP9SVCa-1" value="Tipo de Pieza" style="swimlane;childLayout=stackLayout;horizontal=1;startSize=50;horizontalStack=0;rounded=1;fontSize=14;fontStyle=0;strokeWidth=2;resizeParent=0;resizeLast=1;shadow=0;dashed=0;align=center;arcSize=4;whiteSpace=wrap;html=1;" parent="1" vertex="1">
          <mxGeometry x="132.5" y="270" width="125" height="100" as="geometry" />
        </mxCell>
        <mxCell id="CkNiLpnLs1v-qGP9SVCa-2" value="&lt;font style=&quot;font-size: 14px;&quot;&gt;&lt;b&gt;+id_tipo: varchar&lt;br&gt;&lt;/b&gt;&lt;/font&gt;+descripcion" style="align=left;strokeColor=none;fillColor=none;spacingLeft=4;fontSize=12;verticalAlign=top;resizable=0;rotatable=0;part=1;html=1;" parent="CkNiLpnLs1v-qGP9SVCa-1" vertex="1">
          <mxGeometry y="50" width="125" height="50" as="geometry" />
        </mxCell>
        <mxCell id="KpDHvRkdpocZH4DY-AaO-1" value="Pieza" style="swimlane;childLayout=stackLayout;horizontal=1;startSize=50;horizontalStack=0;rounded=1;fontSize=14;fontStyle=0;strokeWidth=2;resizeParent=0;resizeLast=1;shadow=0;dashed=0;align=center;arcSize=4;whiteSpace=wrap;html=1;" parent="1" vertex="1">
          <mxGeometry x="130" y="440" width="130" height="120" as="geometry" />
        </mxCell>
        <mxCell id="KpDHvRkdpocZH4DY-AaO-2" value="&lt;font style=&quot;font-size: 14px;&quot;&gt;&lt;b&gt;+modelo: varchar&lt;br&gt;&lt;/b&gt;&lt;/font&gt;+precio&lt;br&gt;+descripcion" style="align=left;strokeColor=none;fillColor=none;spacingLeft=4;fontSize=12;verticalAlign=top;resizable=0;rotatable=0;part=1;html=1;" parent="KpDHvRkdpocZH4DY-AaO-1" vertex="1">
          <mxGeometry y="50" width="130" height="70" as="geometry" />
        </mxCell>
        <mxCell id="KpDHvRkdpocZH4DY-AaO-3" value="Estanteria" style="swimlane;childLayout=stackLayout;horizontal=1;startSize=50;horizontalStack=0;rounded=1;fontSize=14;fontStyle=0;strokeWidth=2;resizeParent=0;resizeLast=1;shadow=0;dashed=0;align=center;arcSize=4;whiteSpace=wrap;html=1;" parent="1" vertex="1">
          <mxGeometry x="-225" y="440" width="120" height="80" as="geometry" />
        </mxCell>
        <mxCell id="KpDHvRkdpocZH4DY-AaO-4" value="+letra: varchar" style="align=left;strokeColor=none;fillColor=none;spacingLeft=4;fontSize=12;verticalAlign=top;resizable=0;rotatable=0;part=1;html=1;" parent="KpDHvRkdpocZH4DY-AaO-3" vertex="1">
          <mxGeometry y="50" width="120" height="30" as="geometry" />
        </mxCell>
        <mxCell id="KpDHvRkdpocZH4DY-AaO-7" value="Componer" style="shape=rhombus;perimeter=rhombusPerimeter;whiteSpace=wrap;html=1;align=center;" parent="1" vertex="1">
          <mxGeometry x="345" y="470" width="120" height="60" as="geometry" />
        </mxCell>
        <mxCell id="KpDHvRkdpocZH4DY-AaO-8" value="Cantidad" style="ellipse;whiteSpace=wrap;html=1;align=center;" parent="1" vertex="1">
          <mxGeometry x="500" y="480" width="100" height="40" as="geometry" />
        </mxCell>
        <mxCell id="KpDHvRkdpocZH4DY-AaO-10" value="Almacenar" style="shape=rhombus;perimeter=rhombusPerimeter;whiteSpace=wrap;html=1;align=center;" parent="1" vertex="1">
          <mxGeometry x="-40" y="470" width="120" height="60" as="geometry" />
        </mxCell>
        <mxCell id="KpDHvRkdpocZH4DY-AaO-11" value="Almacen" style="swimlane;childLayout=stackLayout;horizontal=1;startSize=50;horizontalStack=0;rounded=1;fontSize=14;fontStyle=0;strokeWidth=2;resizeParent=0;resizeLast=1;shadow=0;dashed=0;align=center;arcSize=4;whiteSpace=wrap;html=1;" parent="1" vertex="1">
          <mxGeometry x="-450" y="430" width="140" height="120" as="geometry" />
        </mxCell>
        <mxCell id="KpDHvRkdpocZH4DY-AaO-12" value="&lt;font style=&quot;font-size: 14px;&quot;&gt;&lt;b&gt;+num_almacen: int&lt;br&gt;&lt;/b&gt;&lt;/font&gt;+descripcion&lt;br&gt;+direccion" style="align=left;strokeColor=none;fillColor=none;spacingLeft=4;fontSize=12;verticalAlign=top;resizable=0;rotatable=0;part=1;html=1;" parent="KpDHvRkdpocZH4DY-AaO-11" vertex="1">
          <mxGeometry y="50" width="140" height="70" as="geometry" />
        </mxCell>
        <mxCell id="KpDHvRkdpocZH4DY-AaO-13" value="" style="shape=link;html=1;rounded=0;exitX=0;exitY=0.25;exitDx=0;exitDy=0;entryX=1;entryY=0.25;entryDx=0;entryDy=0;" parent="1" source="KpDHvRkdpocZH4DY-AaO-4" target="KpDHvRkdpocZH4DY-AaO-12" edge="1">
          <mxGeometry width="100" relative="1" as="geometry">
            <mxPoint x="365" y="780" as="sourcePoint" />
            <mxPoint x="465" y="780" as="targetPoint" />
          </mxGeometry>
        </mxCell>
        <mxCell id="KpDHvRkdpocZH4DY-AaO-14" value="" style="edgeStyle=entityRelationEdgeStyle;fontSize=12;html=1;endArrow=ERzeroToOne;endFill=1;rounded=0;exitX=1;exitY=0.25;exitDx=0;exitDy=0;entryX=0;entryY=0.5;entryDx=0;entryDy=0;" parent="1" source="KpDHvRkdpocZH4DY-AaO-4" target="KpDHvRkdpocZH4DY-AaO-10" edge="1">
          <mxGeometry width="100" height="100" relative="1" as="geometry">
            <mxPoint x="280" y="710" as="sourcePoint" />
            <mxPoint x="-10" y="500" as="targetPoint" />
          </mxGeometry>
        </mxCell>
        <mxCell id="KpDHvRkdpocZH4DY-AaO-15" value="" style="edgeStyle=entityRelationEdgeStyle;fontSize=12;html=1;endArrow=ERzeroToMany;endFill=1;rounded=0;exitX=-0.012;exitY=0.143;exitDx=0;exitDy=0;exitPerimeter=0;" parent="1" source="KpDHvRkdpocZH4DY-AaO-2" target="KpDHvRkdpocZH4DY-AaO-10" edge="1">
          <mxGeometry width="100" height="100" relative="1" as="geometry">
            <mxPoint x="130" y="525" as="sourcePoint" />
            <mxPoint x="430" y="530" as="targetPoint" />
          </mxGeometry>
        </mxCell>
        <mxCell id="KpDHvRkdpocZH4DY-AaO-16" value="" style="endArrow=none;html=1;rounded=0;entryX=0;entryY=0.5;entryDx=0;entryDy=0;exitX=1;exitY=0.5;exitDx=0;exitDy=0;" parent="1" source="KpDHvRkdpocZH4DY-AaO-7" target="KpDHvRkdpocZH4DY-AaO-8" edge="1">
          <mxGeometry relative="1" as="geometry">
            <mxPoint x="130" y="590" as="sourcePoint" />
            <mxPoint x="290" y="590" as="targetPoint" />
          </mxGeometry>
        </mxCell>
        <mxCell id="KpDHvRkdpocZH4DY-AaO-18" value="" style="edgeStyle=entityRelationEdgeStyle;fontSize=12;html=1;endArrow=ERzeroToMany;endFill=1;rounded=0;exitX=1;exitY=0.25;exitDx=0;exitDy=0;entryX=0.5;entryY=0;entryDx=0;entryDy=0;" parent="1" source="KpDHvRkdpocZH4DY-AaO-1" target="KpDHvRkdpocZH4DY-AaO-7" edge="1">
          <mxGeometry width="100" height="100" relative="1" as="geometry">
            <mxPoint x="300" y="480" as="sourcePoint" />
            <mxPoint x="400" y="380" as="targetPoint" />
          </mxGeometry>
        </mxCell>
        <mxCell id="KpDHvRkdpocZH4DY-AaO-20" value="pieza compleja" style="text;strokeColor=none;fillColor=none;spacingLeft=4;spacingRight=4;overflow=hidden;rotatable=0;points=[[0,0.5],[1,0.5]];portConstraint=eastwest;fontSize=12;whiteSpace=wrap;html=1;" parent="1" vertex="1">
          <mxGeometry x="280" y="440" width="110" height="30" as="geometry" />
        </mxCell>
        <mxCell id="KpDHvRkdpocZH4DY-AaO-21" value="" style="edgeStyle=entityRelationEdgeStyle;fontSize=12;html=1;endArrow=ERzeroToMany;endFill=1;rounded=0;entryX=0.5;entryY=1;entryDx=0;entryDy=0;exitX=1.008;exitY=0.6;exitDx=0;exitDy=0;exitPerimeter=0;" parent="1" source="KpDHvRkdpocZH4DY-AaO-2" target="KpDHvRkdpocZH4DY-AaO-7" edge="1">
          <mxGeometry width="100" height="100" relative="1" as="geometry">
            <mxPoint x="310" y="600" as="sourcePoint" />
            <mxPoint x="410" y="500" as="targetPoint" />
          </mxGeometry>
        </mxCell>
        <mxCell id="KpDHvRkdpocZH4DY-AaO-22" value="pieza simple" style="text;strokeColor=none;fillColor=none;spacingLeft=4;spacingRight=4;overflow=hidden;rotatable=0;points=[[0,0.5],[1,0.5]];portConstraint=eastwest;fontSize=12;whiteSpace=wrap;html=1;" parent="1" vertex="1">
          <mxGeometry x="300" y="535" width="110" height="30" as="geometry" />
        </mxCell>
        <mxCell id="KpDHvRkdpocZH4DY-AaO-23" value="" style="shape=link;html=1;rounded=0;exitX=0.5;exitY=1;exitDx=0;exitDy=0;entryX=0.5;entryY=0;entryDx=0;entryDy=0;" parent="1" source="CkNiLpnLs1v-qGP9SVCa-2" target="KpDHvRkdpocZH4DY-AaO-1" edge="1">
          <mxGeometry width="100" relative="1" as="geometry">
            <mxPoint x="300" y="790" as="sourcePoint" />
            <mxPoint x="380" y="790" as="targetPoint" />
          </mxGeometry>
        </mxCell>
      </root>
    </mxGraphModel>
  </diagram>
</mxfile>
